<svg width="49" height="49" viewBox="0 0 49 49" fill="none" xmlns="http://www.w3.org/2000/svg">
<path d="M22.1534 2.50123C22.9398 1.39805 24.5724 1.37943 25.3837 2.4644L27.1812 4.86822C27.7628 5.6459 28.8189 5.89348 29.6855 5.45525L32.3641 4.10071C33.573 3.48933 35.0273 4.23155 35.2415 5.56929L35.716 8.53312C35.8695 9.49198 36.6896 10.202 37.6606 10.2167L40.6618 10.2621C42.0165 10.2826 42.9592 11.6156 42.5272 12.8997L41.57 15.7445C41.2603 16.6649 41.6565 17.6747 42.5094 18.139L45.1458 19.5739C46.3357 20.2216 46.551 21.84 45.5717 22.7762L43.4021 24.8504C42.7002 25.5214 42.5817 26.5997 43.1212 27.4071L44.7888 29.9029C45.5414 31.0294 44.9799 32.5625 43.6777 32.9363L40.7927 33.7647C39.8593 34.0326 39.2533 34.9324 39.3558 35.898L39.6725 38.8828C39.8154 40.2301 38.6057 41.3266 37.279 41.0525L34.3395 40.4452C33.3885 40.2487 32.4338 40.7638 32.0757 41.6664L30.969 44.4565C30.4695 45.7159 28.8888 46.1246 27.8414 45.2654L25.5209 43.3616C24.7701 42.7457 23.6854 42.758 22.9489 43.3909L20.6723 45.3471C19.6448 46.2301 18.0552 45.8574 17.5271 44.6098L16.357 41.8457C15.9785 40.9514 15.0123 40.4583 14.066 40.6764L11.1411 41.3506C9.82099 41.6548 8.58663 40.5862 8.69881 39.236L8.94736 36.2448C9.02777 35.277 8.40141 34.3914 7.46217 34.1447L4.55901 33.3824C3.24866 33.0383 2.65233 31.5184 3.37909 30.3751L4.98928 27.842C5.51021 27.0224 5.36719 25.9471 4.65015 25.2923L2.43379 23.2681C1.43344 22.3545 1.61175 20.7316 2.7866 20.0569L5.38956 18.5622C6.23167 18.0787 6.60475 17.0601 6.27417 16.147L5.25236 13.3247C4.79117 12.0508 5.70327 10.6967 7.05707 10.6453L10.0565 10.5315C11.0269 10.4946 11.8306 9.7661 11.9622 8.80398L12.369 5.8301C12.5526 4.48783 13.9896 3.71264 15.2122 4.29629L17.9209 5.58941C18.7973 6.00776 19.8475 5.73616 20.4112 4.94542L22.1534 2.50123Z" fill="#1D9BF0"/>
<path d="M20.375 34.625L11 25.25L14.75 21.5L20.375 27.125L32.25 14L36 17.125L20.375 34.625Z" fill="white"/>
</svg>
