<svg width="12" height="12" viewBox="0 0 12 12" fill="none" xmlns="http://www.w3.org/2000/svg">
<path d="M6.28371 8.31082C6.21084 8.39051 6.10786 8.4359 5.99986 8.4359C5.89186 8.4359 5.78889 8.39051 5.71602 8.31082L3.66473 6.06723C3.52139 5.91046 3.53229 5.66718 3.68905 5.52385C3.84583 5.38051 4.08911 5.39138 4.23244 5.54815L5.61525 7.06062V1.38462C5.61525 1.1722 5.78745 1 5.99986 1C6.21228 1 6.38448 1.1722 6.38448 1.38462V7.06062L7.7673 5.54815C7.91063 5.39138 8.15392 5.38051 8.31069 5.52385C8.46745 5.66718 8.47833 5.91046 8.33499 6.06723L6.28371 8.31082Z" fill="#737373" stroke="#999999" stroke-width="0.418462"/>
<path d="M1.76923 7.53842C1.76923 7.32601 1.59704 7.15381 1.38462 7.15381C1.1722 7.15381 1 7.32601 1 7.53842V7.56658C0.99999 8.26791 0.99998 8.83319 1.05975 9.27781C1.12182 9.7394 1.25458 10.128 1.56326 10.4367C1.87193 10.7454 2.26059 10.8782 2.72218 10.9402C3.16678 11 3.73207 11 4.4334 11H7.56662C8.26795 11 8.83323 11 9.27785 10.9402C9.73944 10.8782 10.1281 10.7454 10.4368 10.4367C10.7454 10.128 10.8782 9.7394 10.9403 9.27781C11 8.83319 11 8.26791 11 7.56658V7.53842C11 7.32601 10.8278 7.15381 10.6154 7.15381C10.403 7.15381 10.2308 7.32601 10.2308 7.53842C10.2308 8.27453 10.2299 8.78791 10.1779 9.1753C10.1273 9.5516 10.0348 9.75083 9.89282 9.89278C9.75087 10.0347 9.55164 10.1272 9.17533 10.1779C8.78795 10.2299 8.27457 10.2307 7.53846 10.2307H4.46154C3.72543 10.2307 3.21204 10.2299 2.82468 10.1779C2.44838 10.1272 2.24911 10.0347 2.10718 9.89278C1.96526 9.75083 1.87272 9.5516 1.82213 9.1753C1.77005 8.78791 1.76923 8.27453 1.76923 7.53842Z" fill="#737373" stroke="#999999" stroke-width="0.418462"/>
</svg>
