<svg width="14" height="12" viewBox="0 0 14 12" fill="none" xmlns="http://www.w3.org/2000/svg">
<path d="M6.64645 11.3536C6.84171 11.5488 7.15829 11.5488 7.35355 11.3536L10.5355 8.17157C10.7308 7.97631 10.7308 7.65973 10.5355 7.46447C10.3403 7.2692 10.0237 7.2692 9.82843 7.46447L7 10.2929L4.17157 7.46447C3.97631 7.2692 3.65973 7.2692 3.46447 7.46447C3.2692 7.65973 3.2692 7.97631 3.46447 8.17157L6.64645 11.3536ZM7 0L6.5 2.18557e-08L6.5 11L7 11L7.5 11L7.5 -2.18557e-08L7 0Z" fill="white"/>
<line y1="11.5" x2="14" y2="11.5" stroke="white"/>
</svg>
