<svg width="235" height="20" viewBox="0 0 235 20" fill="none" xmlns="http://www.w3.org/2000/svg">
<path d="M13.7804 0.0676277C15.5899 0.0676277 17.2695 0.22439 18.8192 0.537914C20.3779 0.84248 21.8066 1.23662 23.1055 1.72035V6.23509C22.5949 5.94844 22.0171 5.67075 21.3722 5.40202C20.7362 5.13328 20.0419 4.8959 19.2895 4.68987C18.537 4.48384 17.7308 4.31812 16.8709 4.19271C16.0109 4.0673 15.1062 4.00459 14.1566 4.00459C12.9742 4.00459 11.9441 4.08969 11.0662 4.25989C10.1883 4.43009 9.43587 4.65852 8.80882 4.94517C8.18178 5.23182 7.6667 5.56773 7.2636 5.95292C6.8605 6.32915 6.54249 6.73225 6.30959 7.16223C6.07669 7.5922 5.91544 8.03114 5.82587 8.47903C5.73629 8.92692 5.6915 9.36138 5.6915 9.78239C5.6915 10.1497 5.72733 10.5483 5.79899 10.9783C5.87961 11.4082 6.02294 11.8382 6.22897 12.2682C6.44396 12.6982 6.73956 13.1102 7.11579 13.5044C7.49202 13.8985 7.98022 14.2479 8.5804 14.5524C9.18953 14.857 9.91959 15.1033 10.7706 15.2915C11.6216 15.4706 12.6338 15.5602 13.8073 15.5602C14.3985 15.5602 14.9136 15.5423 15.3525 15.5064C15.7915 15.4706 16.1901 15.4213 16.5484 15.3586C16.9157 15.2959 17.2561 15.2198 17.5696 15.1302C17.8921 15.0406 18.2235 14.9466 18.5639 14.848V12.6175H12.9742V8.57309H23.5489V18.0057C22.8861 18.2296 22.1426 18.4357 21.3184 18.6238C20.5033 18.8029 19.6568 18.9552 18.7789 19.0806C17.91 19.215 17.0366 19.318 16.1587 19.3897C15.2809 19.4613 14.4523 19.4972 13.6729 19.4972C12.4636 19.4972 11.3036 19.4165 10.1928 19.2553C9.08204 19.0941 8.04293 18.8477 7.07548 18.5163C6.117 18.1759 5.23913 17.7459 4.44188 17.2263C3.65359 16.7068 2.97728 16.0887 2.41293 15.3721C1.85755 14.6555 1.42309 13.8358 1.10957 12.9132C0.805003 11.9815 0.65272 10.938 0.65272 9.78239C0.65272 8.63579 0.81396 7.59668 1.13644 6.66507C1.45892 5.73345 1.90682 4.90933 2.48012 4.19271C3.06238 3.47608 3.75661 2.85799 4.56281 2.33844C5.37797 1.81888 6.26928 1.39339 7.23672 1.06195C8.21313 0.721549 9.25224 0.47073 10.354 0.309489C11.4648 0.148248 12.6069 0.0676277 13.7804 0.0676277ZM45.9077 4.71674C45.7733 4.67195 45.5762 4.61373 45.3165 4.54206C45.0656 4.46144 44.77 4.3853 44.4296 4.31364C44.0892 4.23302 43.713 4.16583 43.3009 4.11209C42.8978 4.05834 42.4813 4.03147 42.0513 4.03147C41.1555 4.03147 40.318 4.14344 39.5387 4.36739C38.7683 4.58237 38.0472 4.8735 37.3753 5.24077C36.7035 5.59909 36.0765 6.01115 35.4942 6.47695C34.9209 6.9338 34.3924 7.40409 33.9087 7.88781V19H28.9236V0.537914H33.9087V3.53431C34.5088 3.08642 35.1224 2.65644 35.7495 2.24438C36.3855 1.82336 37.0439 1.45161 37.7247 1.12913C38.4144 0.806649 39.14 0.551351 39.9014 0.363236C40.6629 0.166164 41.4691 0.0676277 42.3201 0.0676277C42.6425 0.0676277 42.9695 0.0855434 43.3009 0.121375C43.6413 0.148248 43.9683 0.184079 44.2818 0.228869C44.6043 0.273658 44.9044 0.322926 45.1821 0.376673C45.4598 0.43042 45.7016 0.484167 45.9077 0.537914V4.71674ZM64.7325 19V17.186C64.0965 17.5354 63.4113 17.8444 62.6767 18.1132C61.9511 18.3819 61.1942 18.6103 60.4059 18.7984C59.6176 18.9866 58.8025 19.1254 57.9604 19.215C57.1274 19.3135 56.2853 19.3628 55.4343 19.3628C54.44 19.3628 53.477 19.2687 52.5454 19.0806C51.6228 18.8925 50.8031 18.5879 50.0865 18.1669C49.3699 17.7459 48.7921 17.195 48.3532 16.5142C47.9232 15.8334 47.7082 15.0003 47.7082 14.015C47.7082 12.7698 48.0486 11.7352 48.7294 10.9111C49.4102 10.078 50.4493 9.39721 51.8467 8.8687C53.2441 8.34018 55.0088 7.9326 57.1408 7.64595C59.2817 7.3593 61.8123 7.13536 64.7325 6.97411V6.58445C64.7325 6.27988 64.6519 5.9798 64.4907 5.68419C64.3294 5.37962 64.0338 5.11536 63.6039 4.89142C63.1828 4.65852 62.6006 4.4704 61.8571 4.32708C61.1225 4.18375 60.182 4.11209 59.0354 4.11209C58.1306 4.11209 57.2348 4.16136 56.348 4.25989C55.4702 4.34947 54.6192 4.47488 53.795 4.63612C52.9799 4.79736 52.205 4.98548 51.4705 5.20046C50.7359 5.41545 50.0686 5.6394 49.4684 5.8723V1.43818C50.0955 1.27693 50.7986 1.12017 51.578 0.96789C52.3573 0.815606 53.168 0.685718 54.01 0.578224C54.8521 0.461772 55.7031 0.372194 56.563 0.309489C57.423 0.237826 58.2471 0.201995 59.0354 0.201995C60.5851 0.201995 62.0138 0.331884 63.3217 0.591661C64.6295 0.84248 65.7537 1.23662 66.6943 1.77409C67.6438 2.31156 68.3829 2.99236 68.9114 3.81648C69.4488 4.6406 69.7176 5.62148 69.7176 6.75913V19H64.7325ZM64.7325 10.5752C62.8156 10.6468 61.1852 10.7498 59.8416 10.8842C58.5069 11.0186 57.3961 11.1753 56.5093 11.3545C55.6224 11.5336 54.9237 11.7262 54.4131 11.9323C53.9115 12.1383 53.5353 12.3488 53.2844 12.5638C53.0336 12.7788 52.8769 12.9938 52.8142 13.2088C52.7604 13.4238 52.7335 13.6208 52.7335 13.8C52.7335 14.015 52.7918 14.2255 52.9082 14.4315C53.0247 14.6286 53.2262 14.8033 53.5129 14.9555C53.8085 15.1078 54.1981 15.2288 54.6819 15.3183C55.1656 15.4079 55.7747 15.4527 56.5093 15.4527C57.3244 15.4527 58.1217 15.39 58.901 15.2646C59.6803 15.1392 60.4194 14.969 61.1181 14.754C61.8168 14.53 62.4707 14.2703 63.0798 13.9747C63.6979 13.6701 64.2488 13.3476 64.7325 13.0072V10.5752ZM96.1611 6.83975C96.1611 7.7624 96.0267 8.6134 95.758 9.39273C95.4893 10.1631 95.0548 10.8305 94.4546 11.3948C93.8634 11.9502 93.093 12.3846 92.1435 12.6982C91.194 13.0117 90.0384 13.1685 88.6768 13.1685H80.3998V19H75.4148V0.537914H88.6768C90.0384 0.537914 91.194 0.694676 92.1435 1.0082C93.093 1.31277 93.8634 1.74722 94.4546 2.31156C95.0548 2.86695 95.4893 3.52983 95.758 4.3002C96.0267 5.07058 96.1611 5.91709 96.1611 6.83975ZM91.1223 6.92037C91.1223 6.49039 91.0596 6.12312 90.9342 5.81855C90.8178 5.50503 90.6207 5.24973 90.343 5.05266C90.0653 4.85559 89.7025 4.71226 89.2546 4.62268C88.8067 4.52415 88.2558 4.47488 87.6019 4.47488H80.3998V9.23149H87.6019C88.2558 9.23149 88.8067 9.19566 89.2546 9.12399C89.7025 9.04337 90.0653 8.91348 90.343 8.73433C90.6207 8.54621 90.8178 8.30435 90.9342 8.00874C91.0596 7.71314 91.1223 7.35034 91.1223 6.92037ZM117.969 19V11.3007H105.285V19H100.3V0.537914H105.285V7.25629H117.969V0.537914H122.954V19H117.969ZM150.661 11.9054C150.661 13.1057 150.365 14.1762 149.774 15.1168C149.182 16.0574 148.34 16.8546 147.248 17.5085C146.164 18.1535 144.847 18.6462 143.297 18.9866C141.756 19.327 140.028 19.4972 138.111 19.4972C137.269 19.4972 136.382 19.4613 135.45 19.3897C134.527 19.327 133.623 19.2329 132.736 19.1075C131.858 18.991 131.034 18.8567 130.264 18.7044C129.493 18.5432 128.844 18.3685 128.315 18.1804V13.8C128.889 14.0418 129.525 14.2703 130.223 14.4853C130.931 14.7002 131.697 14.8928 132.521 15.063C133.345 15.2243 134.227 15.3542 135.168 15.4527C136.117 15.5423 137.121 15.5871 138.178 15.5871C139.172 15.5871 140.046 15.5288 140.798 15.4124C141.559 15.2959 142.218 15.1392 142.773 14.9421C143.329 14.745 143.79 14.5211 144.157 14.2703C144.524 14.0105 144.82 13.7462 145.044 13.4775C145.268 13.1998 145.425 12.9266 145.514 12.6579C145.613 12.3891 145.662 12.1383 145.662 11.9054V10.2796C144.748 10.9514 143.66 11.5068 142.397 11.9457C141.134 12.3757 139.696 12.5907 138.084 12.5907C136.212 12.5907 134.648 12.4115 133.394 12.0532C132.149 11.6859 131.15 11.1619 130.398 10.4811C129.645 9.79135 129.108 8.95379 128.786 7.96843C128.472 6.98307 128.315 5.8723 128.315 4.63612V0.537914H133.327V4.13896C133.327 4.86455 133.421 5.50951 133.609 6.07385C133.806 6.6382 134.111 7.11296 134.523 7.49815C134.944 7.87438 135.486 8.16103 136.149 8.3581C136.812 8.55517 137.613 8.65371 138.554 8.65371C139.351 8.65371 140.104 8.55517 140.811 8.3581C141.528 8.16103 142.186 7.90125 142.787 7.57877C143.387 7.25629 143.929 6.88901 144.412 6.47695C144.896 6.06489 145.313 5.64388 145.662 5.2139V0.537914H150.661V11.9054ZM173.973 19C173.884 17.9967 173.642 17.1189 173.248 16.3664C172.854 15.605 172.356 14.9511 171.756 14.4046C171.165 13.8582 170.493 13.4058 169.741 13.0475C168.997 12.6892 168.231 12.407 167.443 12.201C166.655 11.986 165.866 11.8382 165.078 11.7576C164.299 11.668 163.573 11.6232 162.901 11.6232H161.423V19H156.438V0.537914H161.423V7.65939H162.445C163.134 7.65939 163.855 7.60564 164.608 7.49815C165.36 7.39065 166.104 7.22045 166.838 6.98755C167.582 6.75465 168.294 6.45456 168.975 6.08729C169.656 5.72002 170.265 5.27213 170.802 4.74361C171.34 4.2151 171.788 3.60597 172.146 2.91622C172.504 2.21751 172.728 1.42474 172.818 0.537914H177.897C177.807 1.51432 177.61 2.39666 177.306 3.18495C177.01 3.97324 176.638 4.68091 176.19 5.30796C175.751 5.92605 175.259 6.468 174.712 6.9338C174.166 7.39961 173.606 7.80271 173.033 8.14311C172.459 8.47455 171.886 8.75224 171.313 8.97619C170.748 9.19118 170.22 9.3569 169.727 9.47335C170.354 9.57188 171.004 9.72865 171.676 9.94363C172.356 10.1497 173.028 10.4274 173.691 10.7767C174.354 11.1171 174.986 11.5381 175.586 12.0398C176.195 12.5414 176.741 13.1281 177.225 13.8C177.709 14.4718 178.112 15.2377 178.434 16.0977C178.757 16.9576 178.963 17.9251 179.052 19H173.973ZM207.229 9.78239C207.229 11.3679 206.938 12.7698 206.356 13.9881C205.774 15.1974 204.94 16.2096 203.857 17.0248C202.773 17.84 201.456 18.4581 199.906 18.8791C198.365 19.2911 196.632 19.4972 194.706 19.4972C192.78 19.4972 191.038 19.2911 189.479 18.8791C187.93 18.4581 186.608 17.84 185.515 17.0248C184.423 16.2096 183.581 15.1974 182.989 13.9881C182.398 12.7698 182.103 11.3679 182.103 9.78239C182.103 8.19686 182.398 6.79944 182.989 5.59013C183.581 4.37186 184.423 3.35515 185.515 2.53999C186.608 1.72483 187.93 1.11121 189.479 0.699155C191.038 0.278137 192.78 0.0676277 194.706 0.0676277C196.632 0.0676277 198.365 0.278137 199.906 0.699155C201.456 1.11121 202.773 1.72483 203.857 2.53999C204.94 3.35515 205.774 4.37186 206.356 5.59013C206.938 6.79944 207.229 8.19686 207.229 9.78239ZM202.19 9.78239C202.19 9.09264 202.078 8.40737 201.855 7.72657C201.64 7.03682 201.25 6.41873 200.686 5.8723C200.13 5.32587 199.369 4.88246 198.401 4.54206C197.434 4.20167 196.202 4.03147 194.706 4.03147C193.703 4.03147 192.821 4.11209 192.059 4.27333C191.298 4.42561 190.639 4.6406 190.084 4.91829C189.529 5.19599 189.063 5.52295 188.687 5.89917C188.31 6.26645 188.01 6.66507 187.786 7.09504C187.562 7.51606 187.401 7.95948 187.303 8.42528C187.213 8.88213 187.168 9.3345 187.168 9.78239C187.168 10.2392 187.213 10.7006 187.303 11.1664C187.401 11.6322 187.562 12.0801 187.786 12.5101C188.01 12.9311 188.31 13.3252 188.687 13.6925C189.063 14.0598 189.529 14.3822 190.084 14.6599C190.639 14.9287 191.298 15.1437 192.059 15.3049C192.821 15.4572 193.703 15.5333 194.706 15.5333C196.202 15.5333 197.434 15.3631 198.401 15.0227C199.369 14.6823 200.13 14.2389 200.686 13.6925C201.25 13.1461 201.64 12.5324 201.855 11.8517C202.078 11.1619 202.19 10.4721 202.19 9.78239ZM229.36 19V8.65371C229.36 7.96395 229.301 7.34139 229.185 6.786C229.068 6.22166 228.849 5.74241 228.526 5.34827C228.213 4.94517 227.77 4.63612 227.196 4.42113C226.632 4.19719 225.902 4.08521 225.006 4.08521C224.325 4.08521 223.609 4.17927 222.856 4.36739C222.113 4.54654 221.374 4.7884 220.639 5.09297C219.905 5.39754 219.201 5.75137 218.53 6.15447C217.867 6.55758 217.275 6.97859 216.756 7.41753V19H211.771V0.537914H216.756V3.06402C217.383 2.70571 218.05 2.35187 218.758 2.00252C219.466 1.64421 220.218 1.32172 221.015 1.03507C221.813 0.748423 222.659 0.515519 223.555 0.336363C224.451 0.157206 225.396 0.0676277 226.39 0.0676277C227.635 0.0676277 228.746 0.219911 229.722 0.524477C230.708 0.820085 231.541 1.24558 232.222 1.80097C232.902 2.3474 233.422 3.01475 233.78 3.80304C234.148 4.58237 234.331 5.45576 234.331 6.42321V19H229.36Z" fill="#0020AC"/>
</svg>
