<svg width="39" height="74" viewBox="0 0 39 74" fill="none" xmlns="http://www.w3.org/2000/svg">
<path d="M0 73.9852V0H39V73.9852L19.5 62.5147L0 73.9852Z" fill="url(#paint0_linear_1733_37)"/>
<path d="M22.7501 0H11.853L39.0001 41.4853V25.4265L22.7501 0Z" fill="white" fill-opacity="0.33"/>
<path d="M31.7352 0H26.1943L38.9999 19.8823V11.0882L31.7352 0Z" fill="white" fill-opacity="0.33"/>
<rect x="6.11768" y="44.7354" width="27.5294" height="9.17646" rx="1.91176" fill="white"/>
<path d="M15.0907 48.6703C15.0907 48.9608 15.0483 49.2288 14.9637 49.4743C14.8791 49.7169 14.7422 49.9271 14.5532 50.1048C14.367 50.2797 14.1244 50.4166 13.8254 50.5153C13.5263 50.614 13.1624 50.6634 12.7336 50.6634H10.1268V52.5H8.5568V46.6856H12.7336C13.1624 46.6856 13.5263 46.7349 13.8254 46.8337C14.1244 46.9296 14.367 47.0664 14.5532 47.2441C14.7422 47.4191 14.8791 47.6278 14.9637 47.8704C15.0483 48.1131 15.0907 48.3797 15.0907 48.6703ZM13.5037 48.6956C13.5037 48.5602 13.484 48.4446 13.4445 48.3486C13.4078 48.2499 13.3458 48.1695 13.2583 48.1074C13.1708 48.0454 13.0566 48.0002 12.9155 47.972C12.7745 47.941 12.601 47.9255 12.395 47.9255H10.1268V49.4235H12.395C12.601 49.4235 12.7745 49.4122 12.9155 49.3897C13.0566 49.3643 13.1708 49.3234 13.2583 49.2669C13.3458 49.2077 13.4078 49.1315 13.4445 49.0384C13.484 48.9453 13.5037 48.8311 13.5037 48.6956ZM17.964 52.5H16.394V46.6856H20.3296C20.7528 46.6856 21.111 46.7293 21.4044 46.8167C21.7007 46.9042 21.9405 47.0283 22.1239 47.1891C22.31 47.3499 22.4441 47.5446 22.5259 47.7731C22.6105 47.9988 22.6528 48.2513 22.6528 48.5306C22.6528 48.776 22.6176 48.9905 22.547 49.1738C22.4793 49.3572 22.3862 49.5152 22.2677 49.6478C22.1521 49.7776 22.0166 49.8876 21.8615 49.9779C21.7063 50.0681 21.5427 50.1429 21.3706 50.2022L23.2749 52.5H21.4383L19.6779 50.3587H17.964V52.5ZM21.0659 48.5221C21.0659 48.4093 21.0504 48.3134 21.0194 48.2344C20.9911 48.1554 20.9404 48.0919 20.867 48.0439C20.7937 47.9932 20.6949 47.9565 20.5708 47.9339C20.4495 47.9114 20.2971 47.9001 20.1138 47.9001H17.964V49.1442H20.1138C20.2971 49.1442 20.4495 49.1329 20.5708 49.1104C20.6949 49.0878 20.7937 49.0525 20.867 49.0046C20.9404 48.9538 20.9911 48.8889 21.0194 48.8099C21.0504 48.7309 21.0659 48.635 21.0659 48.5221ZM31.8823 49.597C31.8823 50.0964 31.7906 50.5379 31.6072 50.9216C31.4239 51.3024 31.1615 51.6212 30.8201 51.8779C30.4788 52.1347 30.0641 52.3293 29.576 52.4619C29.0907 52.5917 28.5449 52.6566 27.9383 52.6566C27.3317 52.6566 26.783 52.5917 26.2921 52.4619C25.8041 52.3293 25.388 52.1347 25.0438 51.8779C24.6996 51.6212 24.4344 51.3024 24.2482 50.9216C24.062 50.5379 23.9689 50.0964 23.9689 49.597C23.9689 49.0977 24.062 48.6576 24.2482 48.2767C24.4344 47.893 24.6996 47.5728 25.0438 47.3161C25.388 47.0594 25.8041 46.8661 26.2921 46.7363C26.783 46.6037 27.3317 46.5374 27.9383 46.5374C28.5449 46.5374 29.0907 46.6037 29.576 46.7363C30.0641 46.8661 30.4788 47.0594 30.8201 47.3161C31.1615 47.5728 31.4239 47.893 31.6072 48.2767C31.7906 48.6576 31.8823 49.0977 31.8823 49.597ZM30.2954 49.597C30.2954 49.3798 30.2601 49.164 30.1896 48.9495C30.1219 48.7323 29.9992 48.5377 29.8214 48.3656C29.6465 48.1935 29.4067 48.0538 29.102 47.9466C28.7973 47.8394 28.4094 47.7858 27.9383 47.7858C27.6223 47.7858 27.3444 47.8112 27.1046 47.862C26.8648 47.9099 26.6575 47.9777 26.4826 48.0651C26.3077 48.1526 26.161 48.2555 26.0425 48.374C25.924 48.4897 25.8295 48.6152 25.7589 48.7507C25.6884 48.8832 25.6376 49.0229 25.6066 49.1696C25.5784 49.3135 25.5643 49.4559 25.5643 49.597C25.5643 49.7409 25.5784 49.8862 25.6066 50.0329C25.6376 50.1796 25.6884 50.3206 25.7589 50.4561C25.8295 50.5887 25.924 50.7128 26.0425 50.8285C26.161 50.9441 26.3077 51.0457 26.4826 51.1331C26.6575 51.2178 26.8648 51.2855 27.1046 51.3363C27.3444 51.3842 27.6223 51.4082 27.9383 51.4082C28.4094 51.4082 28.7973 51.3546 29.102 51.2474C29.4067 51.1402 29.6465 51.0005 29.8214 50.8285C29.9992 50.6564 30.1219 50.4631 30.1896 50.2487C30.2601 50.0315 30.2954 49.8142 30.2954 49.597Z" fill="#D0A72D"/>
<defs>
<linearGradient id="paint0_linear_1733_37" x1="19.5" y1="0" x2="19.6912" y2="63.4705" gradientUnits="userSpaceOnUse">
<stop stop-color="#FFDF7E"/>
<stop offset="1" stop-color="#B68900"/>
</linearGradient>
</defs>
</svg>
