<svg width="20" height="25" viewBox="0 0 20 25" fill="none" xmlns="http://www.w3.org/2000/svg">
<path d="M2.78048 22.3417C3.81825 23.2111 5.04728 23.8222 6.36682 24.1248C6.49309 24.1661 6.57806 24.0009 6.49309 23.9183C3.66673 21.2218 5.21975 18.3034 6.36682 16.9876C7.18463 16.0482 8.3494 14.5011 8.26443 12.4264C8.26443 12.2187 8.47685 12.0524 8.64442 12.1774C10.2482 13.0071 11.3445 14.8327 11.6395 16.3255C12.1045 15.87 12.2732 15.1643 12.2732 14.5424C12.2732 14.3347 12.5258 14.1683 12.737 14.3347C14.2558 15.7036 16.8709 20.3497 12.6521 23.9997C12.5683 24.0835 12.6521 24.2499 12.737 24.2086C14.0163 23.8733 15.2193 23.2956 16.2809 22.5069C23.1574 17.1964 18.6848 7.77919 15.7734 4.66843C15.3946 4.29433 14.7196 4.54334 14.7196 5.08265C14.6771 6.20375 14.3396 7.44758 13.4545 8.27719C12.7795 5.45674 10.5302 2.25275 7.32388 0.676129C6.90259 0.46843 6.39632 0.80004 6.4388 1.25674C6.52141 5.11569 4.00425 7.57267 1.81043 10.7672C-0.130846 13.629 -1.39592 18.8981 2.78048 22.3417Z" fill="#FF0000"/>
</svg>
