<svg width="38" height="25" viewBox="0 0 38 25" fill="none" xmlns="http://www.w3.org/2000/svg">
<path d="M0.519169 23.5492C0.27021 23.8148 0.283665 24.2319 0.549221 24.4808C0.814776 24.7298 1.23187 24.7163 1.48083 24.4508L0.519169 23.5492ZM8.5 16L8.92194 15.4937L8.44436 15.0957L8.01917 15.5492L8.5 16ZM14.5 21L14.0781 21.5063L14.6787 22.0068L15.0704 21.3302L14.5 21ZM20 11.5L20.4631 11.031L19.8566 10.4322L19.4296 11.1698L20 11.5ZM27.3273 18.7341L26.8642 19.2031L27.4881 19.8191L27.9065 19.0486L27.3273 18.7341ZM37.5 0L31.0108 3.97624L37.6989 7.60793L37.5 0ZM1 24L1.48083 24.4508L8.98083 16.4508L8.5 16L8.01917 15.5492L0.519169 23.5492L1 24ZM8.5 16L8.07806 16.5063L14.0781 21.5063L14.5 21L14.9219 20.4937L8.92194 15.4937L8.5 16ZM14.5 21L15.0704 21.3302L20.5704 11.8302L20 11.5L19.4296 11.1698L13.9296 20.6698L14.5 21ZM20 11.5L19.5369 11.969L26.8642 19.2031L27.3273 18.7341L27.7903 18.2651L20.4631 11.031L20 11.5ZM27.3273 18.7341L27.9065 19.0486L35.2486 5.52739L34.6694 5.21287L34.0902 4.89836L26.7481 18.4196L27.3273 18.7341Z" fill="url(#paint0_linear_1881_142)"/>
<defs>
<linearGradient id="paint0_linear_1881_142" x1="35.5659" y1="-0.774997" x2="6.96137" y2="24.4023" gradientUnits="userSpaceOnUse">
<stop stop-color="#00BB7C"/>
<stop offset="1" stop-color="white"/>
</linearGradient>
</defs>
</svg>
