<svg width="17" height="20" viewBox="0 0 17 20" fill="none" xmlns="http://www.w3.org/2000/svg">
<rect x="1.0752" y="8.58472" width="13.3948" height="10.6909" rx="2.41273" transform="rotate(-9.61548 1.0752 8.58472)" fill="white"/>
<path d="M2.80384 6.58296L2.01826 7.01047L2.02272 7.01867L2.02736 7.02679L2.80384 6.58296ZM6.79371 1.24485L6.70906 2.13521L6.73645 2.13782L6.76395 2.13873L6.79371 1.24485ZM9.07321 3.85011C9.26461 4.30547 9.78892 4.51945 10.2443 4.32805C10.6996 4.13665 10.9136 3.61235 10.7222 3.15699L9.07321 3.85011ZM4.12307 8.89096L4.89955 8.44713L3.58032 6.13913L2.80384 6.58296L2.02736 7.02679L3.34659 9.33478L4.12307 8.89096ZM2.80384 6.58296L3.58943 6.15545C3.51682 6.02203 3.41188 5.61852 3.42581 5.06134C3.43926 4.52394 3.5605 4.01026 3.77442 3.6584L3.01021 3.19377L2.24599 2.72915C1.81647 3.43562 1.65585 4.28819 1.63762 5.01661C1.6199 5.72527 1.73349 6.48718 2.01826 7.01047L2.80384 6.58296ZM3.01021 3.19377L3.77442 3.6584C4.30704 2.78234 5.16839 1.98874 6.70906 2.13521L6.79371 1.24485L6.87836 0.354493C4.43097 0.121815 3.00025 1.48853 2.24599 2.72915L3.01021 3.19377ZM6.79371 1.24485L6.76395 2.13873C7.26137 2.15529 8.51396 2.51961 9.07321 3.85011L9.89771 3.50355L10.7222 3.15699C9.81134 0.989945 7.78283 0.382905 6.82346 0.350973L6.79371 1.24485Z" fill="white"/>
<circle cx="8.41255" cy="11.9196" r="1.80955" transform="rotate(-9.61548 8.41255 11.9196)" fill="#1858D4"/>
<path d="M8.39846 15.5716C8.45794 15.9227 8.79078 16.1591 9.14188 16.0996C9.49298 16.0401 9.72938 15.7073 9.6699 15.3562L8.39846 15.5716ZM9.03418 15.4639L9.6699 15.3562L9.25299 12.8953L8.61727 13.003L7.98155 13.1107L8.39846 15.5716L9.03418 15.4639Z" fill="#1858D4"/>
</svg>
