<svg width="52" height="45" viewBox="0 0 52 45" fill="none" xmlns="http://www.w3.org/2000/svg">
<path d="M29.8385 0.936867C33.8587 0.936867 37.5904 1.28515 41.0334 1.98173C44.4964 2.6584 47.6708 3.53409 50.5566 4.60881V14.6395C49.4222 14.0026 48.1385 13.3856 46.7055 12.7886C45.2925 12.1915 43.7501 11.6641 42.0783 11.2064C40.4065 10.7486 38.6153 10.3804 36.7047 10.1018C34.7941 9.82316 32.784 9.68385 30.6744 9.68385C28.0473 9.68385 25.7586 9.87292 23.8082 10.2511C21.8577 10.6292 20.186 11.1367 18.7928 11.7736C17.3997 12.4104 16.2553 13.1568 15.3597 14.0126C14.4641 14.8484 13.7576 15.744 13.2401 16.6993C12.7227 17.6546 12.3644 18.6299 12.1654 19.625C11.9664 20.6201 11.8669 21.5853 11.8669 22.5207C11.8669 23.3367 11.9465 24.2223 12.1057 25.1777C12.2848 26.133 12.6033 27.0883 13.061 28.0436C13.5387 28.9989 14.1954 29.9144 15.0313 30.79C15.8672 31.6657 16.9519 32.4419 18.2853 33.1186C19.6387 33.7953 21.2607 34.3426 23.1514 34.7605C25.0421 35.1586 27.291 35.3576 29.8982 35.3576C31.2117 35.3576 32.3561 35.3178 33.3313 35.2382C34.3065 35.1586 35.1922 35.0491 35.9883 34.9098C36.8042 34.7705 37.5605 34.6013 38.2571 34.4023C38.9736 34.2033 39.71 33.9943 40.4662 33.7754V28.8197H28.0473V19.8339H51.5418V40.7909C50.069 41.2884 48.4171 41.7462 46.5861 42.1641C44.775 42.5622 42.8943 42.9005 40.9439 43.1791C39.0134 43.4777 37.0729 43.7065 35.1225 43.8657C33.1721 44.025 31.3312 44.1046 29.5997 44.1046C26.9129 44.1046 24.3356 43.9254 21.8677 43.5672C19.3998 43.209 17.0912 42.6617 14.9418 41.9253C12.8122 41.169 10.8618 40.2137 9.09054 39.0594C7.33915 37.9051 5.83654 36.5318 4.58271 34.9396C3.34878 33.3475 2.38352 31.5264 1.68695 29.4765C1.01028 27.4067 0.671941 25.0881 0.671941 22.5207C0.671941 19.9732 1.03018 17.6646 1.74666 15.5948C2.46313 13.525 3.45824 11.694 4.73197 10.1018C6.02561 8.50962 7.56803 7.13638 9.35922 5.98205C11.1703 4.82773 13.1506 3.88238 15.3 3.146C17.4693 2.38972 19.778 1.83246 22.2259 1.47422C24.6938 1.11599 27.2313 0.936867 29.8385 0.936867Z" fill="#0020AC"/>
</svg>
